<?xml version="1.0" encoding="utf-8"?>
<svg xmlns="http://www.w3.org/2000/svg" style="margin: auto; background: rgba(243, 255, 255, 0); display: block; shape-rendering: auto;" width="277" height="84" preserveAspectRatio="xMidYMid">
<style type="text/css">
  text {
    text-anchor: middle; font-size: 67px; opacity: 0;
  }
</style>
<g style="transform-origin: 138.5px 42px; transform: scale(2.09375);">
<g transform="translate(138.5,42)">
  <g transform="translate(0,0)"><g class="path" style="transform: matrix(0.01, 0, 0, 0.01, 0, 0); transform-origin: -44.785px -2.50636px; animation: 1s linear 0s 1 normal forwards running bounce-in-bcec3d07-2cbf-4aed-9de5-e5e143d5dcff;"><path d="M0.67-21.79L0.67-22.40L10.24-22.40L10.24-22.40Q14.69-22.40 16.91-21.20L16.91-21.20L16.91-21.20Q19.14-20 19.14-17.15L19.14-17.15L19.14-17.15Q19.14-12.77 13.86-11.90L13.86-11.90L13.86-11.84L13.86-11.84Q20.26-11.04 20.26-6.27L20.26-6.27L20.26-6.27Q20.26-2.78 17.63-1.39L17.63-1.39L17.63-1.39Q15.01 0 10.08 0L10.08 0L0.67 0L0.67-0.61L2.75-0.61L2.75-21.79L0.67-21.79zM9.73-11.33L8.99-11.33L8.99-0.61L10.50-0.61L10.50-0.61Q12.26-0.61 12.96-1.82L12.96-1.82L12.96-1.82Q13.66-3.04 13.66-5.41L13.66-5.41L13.66-7.10L13.66-7.10Q13.66-9.22 12.80-10.27L12.80-10.27L12.80-10.27Q11.94-11.33 9.73-11.33L9.73-11.33zM10.02-21.79L8.99-21.79L8.99-11.94L9.82-11.94L9.82-11.94Q11.49-11.94 12.14-12.94L12.14-12.94L12.14-12.94Q12.80-13.95 12.80-16.03L12.80-16.03L12.80-17.54L12.80-17.54Q12.80-19.90 12.22-20.85L12.22-20.85L12.22-20.85Q11.65-21.79 10.02-21.79L10.02-21.79" fill="#000000" stroke="none" stroke-width="none" transform="translate(-55.25,8.693641113281254)" style="fill: rgb(0, 0, 0);"></path></g><g class="path" style="transform: matrix(0.01, 0, 0, 0.01, 0, 0); transform-origin: -22.195px -2.52136px; animation: 1s linear 0.132s 1 normal forwards running bounce-in-bcec3d07-2cbf-4aed-9de5-e5e143d5dcff;"><path d="M37.12-9.89L37.12-9.89L37.12-12.26L37.12-12.26Q37.12-18.11 36.54-19.65L36.54-19.65L36.54-19.65Q35.90-21.41 34.72-21.82L34.72-21.82L34.72-21.82Q34.05-22.08 33.09-22.08L33.09-22.08L33.09-22.08Q32.13-22.08 31.44-21.82L31.44-21.82L31.44-21.82Q30.75-21.57 30.30-20.93L30.30-20.93L30.30-20.93Q29.86-20.29 29.58-19.58L29.58-19.58L29.58-19.58Q29.31-18.88 29.15-17.60L29.15-17.60L29.15-17.60Q28.96-15.74 28.96-12.13L28.96-12.13L28.96-9.82L28.96-9.82Q28.96-5.92 29.26-4.27L29.26-4.27L29.26-4.27Q29.57-2.62 30.02-1.92L30.02-1.92L30.02-1.92Q31.01-0.35 33.09-0.35L33.09-0.35L33.09-0.35Q35.62-0.35 36.37-2.48L36.37-2.48L36.37-2.48Q37.12-4.61 37.12-9.89zM33.02 0.32L33.02 0.32L33.02 0.32Q27.68 0.32 25.04-2.58L25.04-2.58L25.04-2.58Q22.40-5.47 22.40-10.96L22.40-10.96L22.40-10.96Q22.40-16.45 25.23-19.60L25.23-19.60L25.23-19.60Q28.06-22.75 33.25-22.75L33.25-22.75L33.25-22.75Q38.43-22.75 41.07-19.76L41.07-19.76L41.07-19.76Q43.71-16.77 43.71-11.26L43.71-11.26L43.71-11.26Q43.71-5.76 41.04-2.72L41.04-2.72L41.04-2.72Q38.37 0.32 33.02 0.32" fill="#000000" stroke="none" stroke-width="none" transform="translate(-55.25,8.693641113281254)" style="fill: rgb(0, 0, 0);"></path></g><g class="path" style="transform: matrix(0.01, 0, 0, 0.01, 0, 0); transform-origin: 1.76px -2.50636px; animation: 1s linear 0.264s 1 normal forwards running bounce-in-bcec3d07-2cbf-4aed-9de5-e5e143d5dcff;"><path d="M45.70-21.79L45.70-22.40L55.68-22.40L55.68-21.79L53.82-21.79L53.82-11.87L60.19-11.87L60.19-21.79L58.30-21.79L58.30-22.40L68.32-22.40L68.32-21.79L66.43-21.79L66.43-0.61L68.32-0.61L68.32 0L58.30 0L58.30-0.61L60.19-0.61L60.19-11.04L53.82-11.04L53.82-0.61L55.68-0.61L55.68 0L45.70 0L45.70-0.61L47.58-0.61L47.58-21.79L45.70-21.79" fill="#000000" stroke="none" stroke-width="none" transform="translate(-55.25,8.693641113281254)" style="fill: rgb(0, 0, 0);"></path></g><g class="path" style="transform: matrix(0.01, 0, 0, 0.01, 0, 0); transform-origin: 25.71px -2.52136px; animation: 1s linear 0.396s 1 normal forwards running bounce-in-bcec3d07-2cbf-4aed-9de5-e5e143d5dcff;"><path d="M85.02-9.89L85.02-9.89L85.02-12.26L85.02-12.26Q85.02-18.11 84.45-19.65L84.45-19.65L84.45-19.65Q83.81-21.41 82.62-21.82L82.62-21.82L82.62-21.82Q81.95-22.08 80.99-22.08L80.99-22.08L80.99-22.08Q80.03-22.08 79.34-21.82L79.34-21.82L79.34-21.82Q78.66-21.57 78.21-20.93L78.21-20.93L78.21-20.93Q77.76-20.29 77.49-19.58L77.49-19.58L77.49-19.58Q77.22-18.88 77.06-17.60L77.06-17.60L77.06-17.60Q76.86-15.74 76.86-12.13L76.86-12.13L76.86-9.82L76.86-9.82Q76.86-5.92 77.17-4.27L77.17-4.27L77.17-4.27Q77.47-2.62 77.92-1.92L77.92-1.92L77.92-1.92Q78.91-0.35 80.99-0.35L80.99-0.35L80.99-0.35Q83.52-0.35 84.27-2.48L84.27-2.48L84.27-2.48Q85.02-4.61 85.02-9.89zM80.93 0.32L80.93 0.32L80.93 0.32Q75.58 0.32 72.94-2.58L72.94-2.58L72.94-2.58Q70.30-5.47 70.30-10.96L70.30-10.96L70.30-10.96Q70.30-16.45 73.14-19.60L73.14-19.60L73.14-19.60Q75.97-22.75 81.15-22.75L81.15-22.75L81.15-22.75Q86.34-22.75 88.98-19.76L88.98-19.76L88.98-19.76Q91.62-16.77 91.62-11.26L91.62-11.26L91.62-11.26Q91.62-5.76 88.94-2.72L88.94-2.72L88.94-2.72Q86.27 0.32 80.93 0.32" fill="#000000" stroke="none" stroke-width="none" transform="translate(-55.25,8.693641113281254)" style="fill: rgb(0, 0, 0);"></path></g><g class="path" style="transform: matrix(0.01, 0, 0, 0.01, 0, 0); transform-origin: 47.135px -2.50636px; animation: 1s linear 0.528s 1 normal forwards running bounce-in-bcec3d07-2cbf-4aed-9de5-e5e143d5dcff;"><path d="M93.60-21.70L93.60-22.40L105.12-22.40L105.12-21.70L101.73-21.70L101.73-0.70L102.88-0.70L102.88-0.70Q105.60-0.70 107.22-2.37L107.22-2.37L107.22-2.37Q108.83-4.03 110.50-7.49L110.50-7.49L111.17-7.49L110.56 0L93.60 0L93.60-0.70L95.49-0.70L95.49-21.70L93.60-21.70" fill="#000000" stroke="none" stroke-width="none" transform="translate(-55.25,8.693641113281254)" style="fill: rgb(0, 0, 0);"></path></g></g>
</g>
</g>
<style id="bounce-in-bcec3d07-2cbf-4aed-9de5-e5e143d5dcff" data-anikit="">@keyframes bounce-in-bcec3d07-2cbf-4aed-9de5-e5e143d5dcff
{
  0% {
    animation-timing-function: cubic-bezier(0.0383,0.3388,0.0421,0.6652);
    transform: matrix(0.01,0,0,0.01,0,0);
    opacity: 1;
  }
  4.7% {
    animation-timing-function: cubic-bezier(0.3296,0.3336,0.5772,0.6672);
    transform: matrix(0.556,0,0,0.556,0,0);
    opacity: 1;
  }
  8.4% {
    animation-timing-function: cubic-bezier(0.0781,0.1617,0.0874,0.9301);
    transform: matrix(0.979,0,0,0.979,0,0);
    opacity: 1;
  }
  12.4% {
    animation-timing-function: cubic-bezier(0.8341,0.1496,0.8634,0.7673);
    transform: matrix(1.153,0,0,1.153,0,0);
    opacity: 1;
  }
  16.3% {
    animation-timing-function: cubic-bezier(0.3264,0.3332,0.5758,0.6695);
    transform: matrix(1.008,0,0,1.008,0,0);
    opacity: 1;
  }
  21.2% {
    animation-timing-function: cubic-bezier(0.0921,0.1883,0.3277,1);
    transform: matrix(0.704,0,0,0.704,0,0);
    opacity: 1;
  }
  24.5% {
    animation-timing-function: cubic-bezier(0.6905,0.0944,0.8759,0.7624);
    transform: matrix(0.626,0,0,0.626,0,0);
    opacity: 1;
  }
  27.7% {
    animation-timing-function: cubic-bezier(0.3688,0.332,0.624,0.6684);
    transform: matrix(0.704,0,0,0.704,0,0);
    opacity: 1;
  }
  32.6% {
    animation-timing-function: cubic-bezier(0.1368,0.2364,0.2451,0.9049);
    transform: matrix(0.958,0,0,0.958,0,0);
    opacity: 1;
  }
  37.4% {
    animation-timing-function: cubic-bezier(0.5936,0.0846,0.3495,1);
    transform: matrix(1.085,0,0,1.085,0,0);
    opacity: 1;
  }
  49.5% {
    animation-timing-function: cubic-bezier(0.5522,0.0981,0.3807,1);
    transform: matrix(0.802,0,0,0.802,0,0);
    opacity: 1;
  }
  62.4% {
    animation-timing-function: cubic-bezier(0.4497,0.1349,0.4911,1);
    transform: matrix(1.044,0,0,1.044,0,0);
    opacity: 1;
  }
  74.1% {
    animation-timing-function: cubic-bezier(0.429,0,0.5239,1);
    transform: matrix(0.914,0,0,0.914,0,0);
    opacity: 1;
  }
  87% {
    animation-timing-function: cubic-bezier(0.3501,0,0.6422,1);
    transform: matrix(1.013,0,0,1.013,0,0);
    opacity: 1;
  }
  95.8% {
    animation-timing-function: cubic-bezier(0.3653,0,0.6776,1);
    transform: matrix(0.992,0,0,0.992,0,0);
    opacity: 1;
  }
  100% {
    transform: matrix(1,0,0,1,0,0);
    opacity: 1;
  }
}</style></svg>