<?xml version="1.0" encoding="utf-8"?>
<svg xmlns="http://www.w3.org/2000/svg" style="margin: auto; background: rgba(243, 255, 255, 0); display: block; shape-rendering: auto;" width="280" height="250" preserveAspectRatio="xMidYMid">
<style type="text/css">
  text {
    text-anchor: middle; font-size: 32px; opacity: 0;
  }
</style>
<g style="transform-origin:140px 125px;transform:scale(1)">
<g transform="translate(140,125)">
  <g transform="translate(0,0)"><g class="path" style="transform: rotateY(0deg); transform-origin: -92.48px -2.63784px; animation: 1s linear -0.594s infinite normal forwards running flip-h-86a6e5c8-03a8-42ca-bbc9-79351dc28b30;"><path d="M11.55-0.61L13.82-0.61L11.49-7.52L5.15-7.52L2.69-0.61L5.09-0.61L5.09 0L0.19 0L0.19-0.61L1.70-0.61L9.86-22.59L12.48-22.59L20.54-0.61L22.02-0.61L22.02 0L11.55 0L11.55-0.61zM11.23-8.22L8.45-16.61L5.44-8.22L11.23-8.22" fill="#000000" stroke="none" stroke-width="none" transform="translate(-103.58499145507812,8.657160278320308)" style="fill: rgb(0, 0, 0);"></path></g><g class="path" style="transform: rotateY(0deg); transform-origin: -73.665px -2.54284px; animation: 1s linear -0.528s infinite normal forwards running flip-h-86a6e5c8-03a8-42ca-bbc9-79351dc28b30;"><path d="M20.48-22.40L39.36-22.40L39.68-14.37L39.07-14.37L39.07-14.37Q37.66-18.62 36.58-20.18L36.58-20.18L36.58-20.18Q35.49-21.73 33.44-21.73L33.44-21.73L33.06-21.73L33.06-0.67L35.78-0.67L35.78 0L24.10 0L24.10-0.67L26.82-0.67L26.82-21.73L26.40-21.73L26.40-21.73Q24.35-21.73 23.23-20.11L23.23-20.11L23.23-20.11Q22.11-18.50 20.77-14.37L20.77-14.37L20.16-14.37L20.48-22.40" fill="#000000" stroke="none" stroke-width="none" transform="translate(-103.58499145507812,8.657160278320308)" style="fill: rgb(0, 0, 0);"></path></g><g class="path" style="transform: rotateY(0deg); transform-origin: -46.045px -2.54284px; animation: 1s linear -0.462s infinite normal forwards running flip-h-86a6e5c8-03a8-42ca-bbc9-79351dc28b30;"><path d="M48.10-22.40L66.98-22.40L67.30-14.37L66.69-14.37L66.69-14.37Q65.28-18.62 64.19-20.18L64.19-20.18L64.19-20.18Q63.10-21.73 61.06-21.73L61.06-21.73L60.67-21.73L60.67-0.67L63.39-0.67L63.39 0L51.71 0L51.71-0.67L54.43-0.67L54.43-21.73L54.02-21.73L54.02-21.73Q51.97-21.73 50.85-20.11L50.85-20.11L50.85-20.11Q49.73-18.50 48.38-14.37L48.38-14.37L47.78-14.37L48.10-22.40" fill="#000000" stroke="none" stroke-width="none" transform="translate(-103.58499145507812,8.657160278320308)" style="fill: rgb(0, 0, 0);"></path></g><g class="path" style="transform: rotateY(0deg); transform-origin: -23.12px -2.54284px; animation: 1s linear -0.396s infinite normal forwards running flip-h-86a6e5c8-03a8-42ca-bbc9-79351dc28b30;"><path d="M69.15-21.79L69.15-22.40L79.14-22.40L79.14-21.79L77.28-21.79L77.28-11.87L83.65-11.87L83.65-21.79L81.76-21.79L81.76-22.40L91.78-22.40L91.78-21.79L89.89-21.79L89.89-0.61L91.78-0.61L91.78 0L81.76 0L81.76-0.61L83.65-0.61L83.65-11.04L77.28-11.04L77.28-0.61L79.14-0.61L79.14 0L69.15 0L69.15-0.61L71.04-0.61L71.04-21.79L69.15-21.79" fill="#000000" stroke="none" stroke-width="none" transform="translate(-103.58499145507812,8.657160278320308)" style="fill: rgb(0, 0, 0);"></path></g><g class="path" style="transform: rotateY(0deg); transform-origin: -5.45499px -2.54284px; animation: 1s linear -0.33s infinite normal forwards running flip-h-86a6e5c8-03a8-42ca-bbc9-79351dc28b30;"><path d="M93.25-21.79L93.25-22.40L103.01-22.40L103.01-21.79L101.25-21.79L101.25-0.61L103.01-0.61L103.01 0L93.25 0L93.25-0.61L95.01-0.61L95.01-21.79L93.25-21.79" fill="#000000" stroke="none" stroke-width="none" transform="translate(-103.58499145507812,8.657160278320308)" style="fill: rgb(0, 0, 0);"></path></g><g class="path" style="transform: rotateY(0deg); transform-origin: 9.98501px -2.55784px; animation: 1s linear -0.264s infinite normal forwards running flip-h-86a6e5c8-03a8-42ca-bbc9-79351dc28b30;"><path d="M114.21-0.35L114.21-0.35L114.21-0.35Q115.81-0.35 117.04-1.22L117.04-1.22L117.04-1.22Q118.27-2.08 118.27-3.82L118.27-3.82L118.27-3.82Q118.27-5.57 116.94-6.50L116.94-6.50L116.94-6.50Q115.62-7.42 113.17-8.11L113.17-8.11L113.17-8.11Q110.72-8.80 109.62-9.31L109.62-9.31L109.62-9.31Q108.51-9.82 107.52-10.66L107.52-10.66L107.52-10.66Q105.54-12.32 105.54-15.81L105.54-15.81L105.54-15.81Q105.54-18.66 107.57-20.70L107.57-20.70L107.57-20.70Q109.60-22.75 113.12-22.75L113.12-22.75L113.12-22.75Q114.82-22.75 116.66-22.26L116.66-22.26L116.66-22.26Q118.50-21.76 118.94-21.76L118.94-21.76L118.94-21.76Q119.39-21.76 119.74-22.40L119.74-22.40L120.10-22.40L120.32-15.94L119.81-15.94L119.81-15.94Q118.27-18.72 116.59-20.40L116.59-20.40L116.59-20.40Q114.91-22.08 112.94-22.08L112.94-22.08L112.94-22.08Q110.98-22.08 109.89-21.17L109.89-21.17L109.89-21.17Q108.80-20.26 108.80-18.74L108.80-18.74L108.80-18.74Q108.80-17.22 110.10-16.40L110.10-16.40L110.10-16.40Q111.39-15.58 113.28-15.07L113.28-15.07L113.28-15.07Q115.17-14.56 115.76-14.37L115.76-14.37L115.76-14.37Q116.35-14.18 117.23-13.84L117.23-13.84L117.23-13.84Q118.11-13.50 118.67-13.14L118.67-13.14L118.67-13.14Q119.23-12.77 119.86-12.21L119.86-12.21L119.86-12.21Q120.48-11.65 120.83-10.98L120.83-10.98L120.83-10.98Q121.70-9.44 121.70-7.33L121.70-7.33L121.70-7.33Q121.70-3.87 119.54-1.78L119.54-1.78L119.54-1.78Q117.38 0.32 113.86 0.32L113.86 0.32L113.86 0.32Q112.03 0.32 109.68-0.16L109.68-0.16L109.68-0.16Q107.33-0.64 107.07-0.64L107.07-0.64L107.07-0.64Q106.62-0.64 106.21 0.32L106.21 0.32L105.76 0.32L105.44-7.30L105.98-7.30L105.98-7.30Q107.39-4.51 109.58-2.43L109.58-2.43L109.58-2.43Q111.78-0.35 114.21-0.35" fill="#000000" stroke="none" stroke-width="none" transform="translate(-103.58499145507812,8.657160278320308)" style="fill: rgb(0, 0, 0);"></path></g><g class="path" style="transform: rotateY(0deg); transform-origin: 36.095px -2.54284px; animation: 1s linear -0.198s infinite normal forwards running flip-h-86a6e5c8-03a8-42ca-bbc9-79351dc28b30;"><path d="M130.24-22.40L149.12-22.40L149.44-14.37L148.83-14.37L148.83-14.37Q147.42-18.62 146.34-20.18L146.34-20.18L146.34-20.18Q145.25-21.73 143.20-21.73L143.20-21.73L142.82-21.73L142.82-0.67L145.54-0.67L145.54 0L133.86 0L133.86-0.67L136.58-0.67L136.58-21.73L136.16-21.73L136.16-21.73Q134.11-21.73 132.99-20.11L132.99-20.11L132.99-20.11Q131.87-18.50 130.53-14.37L130.53-14.37L129.92-14.37L130.24-22.40" fill="#000000" stroke="none" stroke-width="none" transform="translate(-103.58499145507812,8.657160278320308)" style="fill: rgb(0, 0, 0);"></path></g><g class="path" style="transform: rotateY(0deg); transform-origin: 52.715px -2.54284px; animation: 1s linear -0.132s infinite normal forwards running flip-h-86a6e5c8-03a8-42ca-bbc9-79351dc28b30;"><path d="M151.42-21.79L151.42-22.40L161.18-22.40L161.18-21.79L159.42-21.79L159.42-0.61L161.18-0.61L161.18 0L151.42 0L151.42-0.61L153.18-0.61L153.18-21.79L151.42-21.79" fill="#000000" stroke="none" stroke-width="none" transform="translate(-103.58499145507812,8.657160278320308)" style="fill: rgb(0, 0, 0);"></path></g><g class="path" style="transform: rotateY(0deg); transform-origin: 71.835px -2.54284px; animation: 1s linear -0.066s infinite normal forwards running flip-h-86a6e5c8-03a8-42ca-bbc9-79351dc28b30;"><path d="M175.68-5.92L179.52-22.40L188.06-22.40L188.06-21.79L186.30-21.79L186.30-0.61L188.06-0.61L188.06 0L178.30 0L178.30-0.61L180.06-0.61L180.06-20.61L179.94-20.61L175.14 0L171.14 0L165.50-20.70L165.38-20.70L165.38-0.61L167.14-0.61L167.14 0L162.78 0L162.78-0.61L164.54-0.61L164.54-21.79L162.78-21.79L162.78-22.40L171.42-22.40L175.68-5.92" fill="#000000" stroke="none" stroke-width="none" transform="translate(-103.58499145507812,8.657160278320308)" style="fill: rgb(0, 0, 0);"></path></g><g class="path" style="transform: rotateY(0deg); transform-origin: 94.865px -2.54284px; animation: 1s linear 0s infinite normal forwards running flip-h-86a6e5c8-03a8-42ca-bbc9-79351dc28b30;"><path d="M189.54-21.70L189.54-22.40L206.18-22.40L206.50-16.06L205.92-16.06L205.92-16.06Q204.58-19.30 203.10-20.50L203.10-20.50L203.10-20.50Q201.63-21.70 198.78-21.70L198.78-21.70L197.66-21.70L197.66-11.81L198.75-11.81L198.75-11.81Q200.26-11.81 201.28-12.94L201.28-12.94L201.28-12.94Q202.30-14.08 202.72-16L202.72-16L203.20-16L203.20-6.53L202.66-6.53L202.66-6.53Q202.08-8.93 201.10-9.95L201.10-9.95L201.10-9.95Q200.13-10.98 198.43-10.98L198.43-10.98L197.66-10.98L197.66-0.70L198.88-0.70L198.88-0.70Q201.82-0.70 203.89-2.46L203.89-2.46L203.89-2.46Q205.95-4.22 206.72-6.98L206.72-6.98L207.36-6.98L207.10 0L189.54 0L189.54-0.70L191.42-0.70L191.42-21.70L189.54-21.70" fill="#000000" stroke="none" stroke-width="none" transform="translate(-103.58499145507812,8.657160278320308)" style="fill: rgb(0, 0, 0);"></path></g></g>
</g>
</g>
<style id="flip-h-86a6e5c8-03a8-42ca-bbc9-79351dc28b30" data-anikit="">@keyframes flip-h-86a6e5c8-03a8-42ca-bbc9-79351dc28b30
{
  0% {
    animation-timing-function: cubic-bezier(0.1909,0.4373,0.4509,0.7454);
    transform: rotateY(0deg);
  }
  30% {
    animation-timing-function: cubic-bezier(0.128,0.2315,0.9704,0.8632);
    transform: rotateY(153.72deg);
  }
  50% {
    animation-timing-function: cubic-bezier(0.5788,0.3001,0.5613,0.6784);
    transform: rotateY(180deg);
  }
  55% {
    animation-timing-function: cubic-bezier(0.1545,0.4929,0.6089,0.9373);
    transform: rotateY(238.68deg);
  }
  100% {
    transform: rotateY(360deg);
  }
}</style></svg>