<?xml version="1.0" encoding="utf-8"?>
<svg xmlns="http://www.w3.org/2000/svg" style="margin: auto; background: rgb(255, 251, 243); display: block; shape-rendering: auto; animation-play-state: running; animation-delay: 0s;" width="280" height="250" preserveAspectRatio="xMidYMid">
<style type="text/css" style="animation-play-state: running; animation-delay: 0s;">
  text {
    text-anchor: middle; font-size: 32px; opacity: 0;
  }
</style>
<g style="transform-origin: 140px 125px; transform: scale(1); animation-play-state: running; animation-delay: 0s;">
<g transform="translate(140,125)" style="animation-play-state: running; animation-delay: 0s;">
  <g transform="translate(0,0)" style="animation-play-state: running; animation-delay: 0s;"><g class="path" style="transform: matrix(1, 0, 0, 1, 0, 0); transform-origin: -108.85px -2.53473px; animation: 1s linear -0.605s infinite normal forwards running bounce-93051e0e-b39e-4ce6-9e03-d9fcd54a3f6f;"><path d="M20.64-21.79L18.88-21.79L18.88 0L14.40 0L3.42-20.70L3.42-0.61L5.18-0.61L5.18 0L0.80 0L0.80-0.61L2.56-0.61L2.56-21.79L0.80-21.79L0.80-22.40L9.63-22.40L18.02-6.34L18.02-21.79L16.26-21.79L16.26-22.40L20.64-22.40L20.64-21.79" fill="#000000" stroke="none" stroke-width="none" transform="translate(-119.57000732421875,8.665267130533847)" style="fill: rgb(0, 0, 0); animation-play-state: running; animation-delay: 0s;"></path></g><g class="path" style="transform: matrix(1, 0, 0, 1, 0, 0); transform-origin: -86.485px -2.54973px; animation: 1s linear -0.55s infinite normal forwards running bounce-93051e0e-b39e-4ce6-9e03-d9fcd54a3f6f;"><path d="M37.15-9.89L37.15-9.89L37.15-12.26L37.15-12.26Q37.15-18.11 36.58-19.65L36.58-19.65L36.58-19.65Q35.94-21.41 34.75-21.82L34.75-21.82L34.75-21.82Q34.08-22.08 33.12-22.08L33.12-22.08L33.12-22.08Q32.16-22.08 31.47-21.82L31.47-21.82L31.47-21.82Q30.78-21.57 30.34-20.93L30.34-20.93L30.34-20.93Q29.89-20.29 29.62-19.58L29.62-19.58L29.62-19.58Q29.34-18.88 29.18-17.60L29.18-17.60L29.18-17.60Q28.99-15.74 28.99-12.13L28.99-12.13L28.99-9.82L28.99-9.82Q28.99-5.92 29.30-4.27L29.30-4.27L29.30-4.27Q29.60-2.62 30.05-1.92L30.05-1.92L30.05-1.92Q31.04-0.35 33.12-0.35L33.12-0.35L33.12-0.35Q35.65-0.35 36.40-2.48L36.40-2.48L36.40-2.48Q37.15-4.61 37.15-9.89zM33.06 0.32L33.06 0.32L33.06 0.32Q27.71 0.32 25.07-2.58L25.07-2.58L25.07-2.58Q22.43-5.47 22.43-10.96L22.43-10.96L22.43-10.96Q22.43-16.45 25.26-19.60L25.26-19.60L25.26-19.60Q28.10-22.75 33.28-22.75L33.28-22.75L33.28-22.75Q38.46-22.75 41.10-19.76L41.10-19.76L41.10-19.76Q43.74-16.77 43.74-11.26L43.74-11.26L43.74-11.26Q43.74-5.76 41.07-2.72L41.07-2.72L41.07-2.72Q38.40 0.32 33.06 0.32" fill="#000000" stroke="none" stroke-width="none" transform="translate(-119.57000732421875,8.665267130533847)" style="fill: rgb(0, 0, 0); animation-play-state: running; animation-delay: 0s;"></path></g><g class="path" style="transform: matrix(1, 0, 0, 1, 0, 0); transform-origin: -64.56px -2.53473px; animation: 1s linear -0.495s infinite normal forwards running bounce-93051e0e-b39e-4ce6-9e03-d9fcd54a3f6f;"><path d="M45.57-22.40L64.45-22.40L64.77-14.37L64.16-14.37L64.16-14.37Q62.75-18.62 61.66-20.18L61.66-20.18L61.66-20.18Q60.58-21.73 58.53-21.73L58.53-21.73L58.14-21.73L58.14-0.67L60.86-0.67L60.86 0L49.18 0L49.18-0.67L51.90-0.67L51.90-21.73L51.49-21.73L51.49-21.73Q49.44-21.73 48.32-20.11L48.32-20.11L48.32-20.11Q47.20-18.50 45.86-14.37L45.86-14.37L45.25-14.37L45.57-22.40" fill="#000000" stroke="none" stroke-width="none" transform="translate(-119.57000732421875,8.665267130533847)" style="fill: rgb(0, 0, 0); animation-play-state: running; animation-delay: 0s;"></path></g><g class="path" style="transform: matrix(1, 0, 0, 1, 0, 0); transform-origin: -36.755px -2.62973px; animation: 1s linear -0.44s infinite normal forwards running bounce-93051e0e-b39e-4ce6-9e03-d9fcd54a3f6f;"><path d="M83.26-0.61L85.54-0.61L83.20-7.52L76.86-7.52L74.40-0.61L76.80-0.61L76.80 0L71.90 0L71.90-0.61L73.41-0.61L81.57-22.59L84.19-22.59L92.26-0.61L93.73-0.61L93.73 0L83.26 0L83.26-0.61zM82.94-8.22L80.16-16.61L77.15-8.22L82.94-8.22" fill="#000000" stroke="none" stroke-width="none" transform="translate(-119.57000732421875,8.665267130533847)" style="fill: rgb(0, 0, 0); animation-play-state: running; animation-delay: 0s;"></path></g><g class="path" style="transform: matrix(1, 0, 0, 1, 0, 0); transform-origin: -19.3px -2.37473px; animation: 1s linear -0.385s infinite normal forwards running bounce-93051e0e-b39e-4ce6-9e03-d9fcd54a3f6f;"><path d="M97.70-21.79L103.07-5.79L108.64-21.79L106.14-21.79L106.14-22.40L111.04-22.40L111.04-21.79L109.54-21.79L101.82 0.32L99.14 0.32L90.98-21.79L89.50-21.79L89.50-22.40L99.97-22.40L99.97-21.79L97.70-21.79" fill="#000000" stroke="none" stroke-width="none" transform="translate(-119.57000732421875,8.665267130533847)" style="fill: rgb(0, 0, 0); animation-play-state: running; animation-delay: 0s;"></path></g><g class="path" style="transform: matrix(1, 0, 0, 1, 0, 0); transform-origin: -2.03501px -2.62973px; animation: 1s linear -0.33s infinite normal forwards running bounce-93051e0e-b39e-4ce6-9e03-d9fcd54a3f6f;"><path d="M117.98-0.61L120.26-0.61L117.92-7.52L111.58-7.52L109.12-0.61L111.52-0.61L111.52 0L106.62 0L106.62-0.61L108.13-0.61L116.29-22.59L118.91-22.59L126.98-0.61L128.45-0.61L128.45 0L117.98 0L117.98-0.61zM117.66-8.22L114.88-16.61L111.87-8.22L117.66-8.22" fill="#000000" stroke="none" stroke-width="none" transform="translate(-119.57000732421875,8.665267130533847)" style="fill: rgb(0, 0, 0); animation-play-state: running; animation-delay: 0s;"></path></g><g class="path" style="transform: matrix(1, 0, 0, 1, 0, 0); transform-origin: 14.75px -2.53473px; animation: 1s linear -0.275s infinite normal forwards running bounce-93051e0e-b39e-4ce6-9e03-d9fcd54a3f6f;"><path d="M129.44-21.79L129.44-22.40L139.20-22.40L139.20-21.79L137.44-21.79L137.44-0.61L139.20-0.61L139.20 0L129.44 0L129.44-0.61L131.20-0.61L131.20-21.79L129.44-21.79" fill="#000000" stroke="none" stroke-width="none" transform="translate(-119.57000732421875,8.665267130533847)" style="fill: rgb(0, 0, 0); animation-play-state: running; animation-delay: 0s;"></path></g><g class="path" style="transform: matrix(1, 0, 0, 1, 0, 0); transform-origin: 29.885px -2.53473px; animation: 1s linear -0.22s infinite normal forwards running bounce-93051e0e-b39e-4ce6-9e03-d9fcd54a3f6f;"><path d="M140.67-21.70L140.67-22.40L152.19-22.40L152.19-21.70L148.80-21.70L148.80-0.70L149.95-0.70L149.95-0.70Q152.67-0.70 154.29-2.37L154.29-2.37L154.29-2.37Q155.90-4.03 157.57-7.49L157.57-7.49L158.24-7.49L157.63 0L140.67 0L140.67-0.70L142.56-0.70L142.56-21.70L140.67-21.70" fill="#000000" stroke="none" stroke-width="none" transform="translate(-119.57000732421875,8.665267130533847)" style="fill: rgb(0, 0, 0); animation-play-state: running; animation-delay: 0s;"></path></g><g class="path" style="transform: matrix(1, 0, 0, 1, 0, 0); transform-origin: 50.605px -2.62973px; animation: 1s linear -0.165s infinite normal forwards running bounce-93051e0e-b39e-4ce6-9e03-d9fcd54a3f6f;"><path d="M170.62-0.61L172.90-0.61L170.56-7.52L164.22-7.52L161.76-0.61L164.16-0.61L164.16 0L159.26 0L159.26-0.61L160.77-0.61L168.93-22.59L171.55-22.59L179.62-0.61L181.09-0.61L181.09 0L170.62 0L170.62-0.61zM170.30-8.22L167.52-16.61L164.51-8.22L170.30-8.22" fill="#000000" stroke="none" stroke-width="none" transform="translate(-119.57000732421875,8.665267130533847)" style="fill: rgb(0, 0, 0); animation-play-state: running; animation-delay: 0s;"></path></g><g class="path" style="transform: matrix(1, 0, 0, 1, 0, 0); transform-origin: 72.175px -2.53473px; animation: 1s linear -0.11s infinite normal forwards running bounce-93051e0e-b39e-4ce6-9e03-d9fcd54a3f6f;"><path d="M181.95-21.79L181.95-22.40L191.52-22.40L191.52-22.40Q195.97-22.40 198.19-21.20L198.19-21.20L198.19-21.20Q200.42-20 200.42-17.15L200.42-17.15L200.42-17.15Q200.42-12.77 195.14-11.90L195.14-11.90L195.14-11.84L195.14-11.84Q201.54-11.04 201.54-6.27L201.54-6.27L201.54-6.27Q201.54-2.78 198.91-1.39L198.91-1.39L198.91-1.39Q196.29 0 191.36 0L191.36 0L181.95 0L181.95-0.61L184.03-0.61L184.03-21.79L181.95-21.79zM191.01-11.33L190.27-11.33L190.27-0.61L191.78-0.61L191.78-0.61Q193.54-0.61 194.24-1.82L194.24-1.82L194.24-1.82Q194.94-3.04 194.94-5.41L194.94-5.41L194.94-7.10L194.94-7.10Q194.94-9.22 194.08-10.27L194.08-10.27L194.08-10.27Q193.22-11.33 191.01-11.33L191.01-11.33zM191.30-21.79L190.27-21.79L190.27-11.94L191.10-11.94L191.10-11.94Q192.77-11.94 193.42-12.94L193.42-12.94L193.42-12.94Q194.08-13.95 194.08-16.03L194.08-16.03L194.08-17.54L194.08-17.54Q194.08-19.90 193.50-20.85L193.50-20.85L193.50-20.85Q192.93-21.79 191.30-21.79L191.30-21.79" fill="#000000" stroke="none" stroke-width="none" transform="translate(-119.57000732421875,8.665267130533847)" style="fill: rgb(0, 0, 0); animation-play-state: running; animation-delay: 0s;"></path></g><g class="path" style="transform: matrix(1, 0, 0, 1, 0, 0); transform-origin: 92.255px -2.53473px; animation: 1s linear -0.055s infinite normal forwards running bounce-93051e0e-b39e-4ce6-9e03-d9fcd54a3f6f;"><path d="M203.04-21.70L203.04-22.40L214.56-22.40L214.56-21.70L211.17-21.70L211.17-0.70L212.32-0.70L212.32-0.70Q215.04-0.70 216.66-2.37L216.66-2.37L216.66-2.37Q218.27-4.03 219.94-7.49L219.94-7.49L220.61-7.49L220 0L203.04 0L203.04-0.70L204.93-0.70L204.93-21.70L203.04-21.70" fill="#000000" stroke="none" stroke-width="none" transform="translate(-119.57000732421875,8.665267130533847)" style="fill: rgb(0, 0, 0); animation-play-state: running; animation-delay: 0s;"></path></g><g class="path" style="transform: matrix(1, 0, 0, 1, 0, 0); transform-origin: 111.455px -2.53473px; animation: 1s linear 0s infinite normal forwards running bounce-93051e0e-b39e-4ce6-9e03-d9fcd54a3f6f;"><path d="M222.11-21.70L222.11-22.40L238.75-22.40L239.07-16.06L238.50-16.06L238.50-16.06Q237.15-19.30 235.68-20.50L235.68-20.50L235.68-20.50Q234.21-21.70 231.36-21.70L231.36-21.70L230.24-21.70L230.24-11.81L231.33-11.81L231.33-11.81Q232.83-11.81 233.86-12.94L233.86-12.94L233.86-12.94Q234.88-14.08 235.30-16L235.30-16L235.78-16L235.78-6.53L235.23-6.53L235.23-6.53Q234.66-8.93 233.68-9.95L233.68-9.95L233.68-9.95Q232.70-10.98 231.01-10.98L231.01-10.98L230.24-10.98L230.24-0.70L231.46-0.70L231.46-0.70Q234.40-0.70 236.46-2.46L236.46-2.46L236.46-2.46Q238.53-4.22 239.30-6.98L239.30-6.98L239.94-6.98L239.68 0L222.11 0L222.11-0.70L224-0.70L224-21.70L222.11-21.70" fill="#000000" stroke="none" stroke-width="none" transform="translate(-119.57000732421875,8.665267130533847)" style="fill: rgb(0, 0, 0); animation-play-state: running; animation-delay: 0s;"></path></g></g>
</g>
</g>
<style id="bounce-93051e0e-b39e-4ce6-9e03-d9fcd54a3f6f" data-anikit="">@keyframes bounce-93051e0e-b39e-4ce6-9e03-d9fcd54a3f6f
{
  0% {
    animation-timing-function: cubic-bezier(0.1361,0.2514,0.2175,0.8786);
    transform: translate(0,0px) scaleY(1);
  }
  37% {
    animation-timing-function: cubic-bezier(0.7674,0.1844,0.8382,0.7157);
    transform: translate(0,-39.96px) scaleY(1);
  }
  72% {
    animation-timing-function: cubic-bezier(0.1118,0.2149,0.2172,0.941);
    transform: translate(0,0px) scaleY(1);
  }
  87% {
    animation-timing-function: cubic-bezier(0.7494,0.2259,0.8209,0.6963);
    transform: translate(0,19.900000000000002px) scaleY(0.602);
  }
  100% {
    transform: translate(0,0px) scaleY(1);
  }
}</style></svg>