<?xml version="1.0" encoding="utf-8"?>
<svg xmlns="http://www.w3.org/2000/svg" style="margin: auto; background: rgba(255, 251, 243, 0); display: block; shape-rendering: auto;" width="280" height="84" preserveAspectRatio="xMidYMid">
<style type="text/css">
  text {
    text-anchor: middle; font-size: 19px; opacity: 0;
  }
</style>
<g style="transform-origin: 140px 42px; transform: scale(1.26667);">
<g transform="translate(140,42)">
  <g transform="translate(0,0)"><g class="path" style="transform: scale(0.91); transform-origin: -97.95px -1.09855px; animation: 1.5625s linear -0.979688s infinite normal forwards running breath-b0e482a2-ba44-4fda-a3a2-09e2dc074899;"><path d="M3.92-10.21L6.36-3.03L7.60-7.35L6.71-10.21L5.85-10.21L5.85-10.50L10.50-10.50L10.50-10.21L9.62-10.21L11.85-3.12L13.65-10.21L12.13-10.21L12.13-10.50L15.13-10.50L15.13-10.21L14.14-10.21L11.38 0.15L10.05 0.15L7.83-6.63L5.88 0.15L4.58 0.15L0.79-10.21L0.09-10.21L0.09-10.50L4.96-10.50L4.96-10.21L3.92-10.21" fill="#000000" stroke="none" stroke-width="none" transform="translate(-105.55999755859375,4.076450347900391)" style="fill: rgb(0, 0, 0);"></path></g><g class="path" style="transform: scale(0.91); transform-origin: -85.845px -1.17355px; animation: 1.5625s linear -0.928125s infinite normal forwards running breath-b0e482a2-ba44-4fda-a3a2-09e2dc074899;"><path d="M15.54-10.17L15.54-10.50L23.34-10.50L23.49-7.53L23.22-7.53L23.22-7.53Q22.59-9.04 21.90-9.61L21.90-9.61L21.90-9.61Q21.21-10.17 19.88-10.17L19.88-10.17L19.35-10.17L19.35-5.54L19.86-5.54L19.86-5.54Q20.56-5.54 21.04-6.07L21.04-6.07L21.04-6.07Q21.52-6.60 21.72-7.50L21.72-7.50L21.95-7.50L21.95-3.06L21.69-3.06L21.69-3.06Q21.42-4.18 20.96-4.67L20.96-4.67L20.96-4.67Q20.50-5.14 19.71-5.14L19.71-5.14L19.35-5.14L19.35-0.33L19.92-0.33L19.92-0.33Q21.30-0.33 22.27-1.16L22.27-1.16L22.27-1.16Q23.23-1.98 23.59-3.27L23.59-3.27L23.89-3.27L23.77 0L15.54 0L15.54-0.33L16.43-0.33L16.43-10.17L15.54-10.17" fill="#000000" stroke="none" stroke-width="none" transform="translate(-105.55999755859375,4.076450347900391)" style="fill: rgb(0, 0, 0);"></path></g><g class="path" style="transform: scale(0.91); transform-origin: -76.545px -1.17355px; animation: 1.5625s linear -0.876563s infinite normal forwards running breath-b0e482a2-ba44-4fda-a3a2-09e2dc074899;"><path d="M24.90-10.17L24.90-10.50L30.30-10.50L30.30-10.17L28.71-10.17L28.71-0.33L29.25-0.33L29.25-0.33Q30.52-0.33 31.28-1.11L31.28-1.11L31.28-1.11Q32.04-1.89 32.82-3.51L32.82-3.51L33.13-3.51L32.85 0L24.90 0L24.90-0.33L25.79-0.33L25.79-10.17L24.90-10.17" fill="#000000" stroke="none" stroke-width="none" transform="translate(-105.55999755859375,4.076450347900391)" style="fill: rgb(0, 0, 0);"></path></g><g class="path" style="transform: scale(0.91); transform-origin: -67.175px -1.17855px; animation: 1.5625s linear -0.825s infinite normal forwards running breath-b0e482a2-ba44-4fda-a3a2-09e2dc074899;"><path d="M39.38-10.37L39.38-10.37L39.38-10.37Q37.05-10.37 37.05-5.88L37.05-5.88L37.05-4.69L37.05-4.69Q37.05-2.56 37.66-1.36L37.66-1.36L37.66-1.36Q38.28-0.15 39.48-0.15L39.48-0.15L39.48-0.15Q41.13-0.15 42.51-3.36L42.51-3.36L42.78-3.36L42.67-0.01L42.51-0.01L42.51-0.01Q42.42-0.18 42.34-0.25L42.34-0.25L42.34-0.25Q42.27-0.32 42.13-0.32L42.13-0.32L42.13-0.32Q41.98-0.32 41.04-0.08L41.04-0.08L41.04-0.08Q40.09 0.15 39.12 0.15L39.12 0.15L39.12 0.15Q36.67 0.15 35.33-1.17L35.33-1.17L35.33-1.17Q33.99-2.49 33.99-5.14L33.99-5.14L33.99-5.14Q33.99-7.79 35.39-9.22L35.39-9.22L35.39-9.22Q36.80-10.66 39.16-10.66L39.16-10.66L39.16-10.66Q40.08-10.66 40.96-10.43L40.96-10.43L40.96-10.43Q41.84-10.20 41.98-10.20L41.98-10.20L41.98-10.20Q42.13-10.20 42.21-10.27L42.21-10.27L42.21-10.27Q42.28-10.33 42.38-10.50L42.38-10.50L42.54-10.50L42.66-7.25L42.39-7.25L42.39-7.25Q41.72-8.76 41.00-9.56L41.00-9.56L41.00-9.56Q40.29-10.37 39.38-10.37" fill="#000000" stroke="none" stroke-width="none" transform="translate(-105.55999755859375,4.076450347900391)" style="fill: rgb(0, 0, 0);"></path></g><g class="path" style="transform: scale(0.91); transform-origin: -56.675px -1.17855px; animation: 1.5625s linear -0.773438s infinite normal forwards running breath-b0e482a2-ba44-4fda-a3a2-09e2dc074899;"><path d="M50.79-4.63L50.79-4.63L50.79-5.75L50.79-5.75Q50.79-8.49 50.52-9.21L50.52-9.21L50.52-9.21Q50.22-10.04 49.66-10.23L49.66-10.23L49.66-10.23Q49.35-10.35 48.90-10.35L48.90-10.35L48.90-10.35Q48.45-10.35 48.13-10.23L48.13-10.23L48.13-10.23Q47.80-10.11 47.59-9.81L47.59-9.81L47.59-9.81Q47.38-9.51 47.26-9.18L47.26-9.18L47.26-9.18Q47.13-8.85 47.05-8.25L47.05-8.25L47.05-8.25Q46.96-7.38 46.96-5.68L46.96-5.68L46.96-4.60L46.96-4.60Q46.96-2.77 47.11-2.00L47.11-2.00L47.11-2.00Q47.25-1.23 47.46-0.90L47.46-0.90L47.46-0.90Q47.92-0.16 48.90-0.16L48.90-0.16L48.90-0.16Q50.09-0.16 50.44-1.16L50.44-1.16L50.44-1.16Q50.79-2.16 50.79-4.63zM48.87 0.15L48.87 0.15L48.87 0.15Q46.36 0.15 45.13-1.21L45.13-1.21L45.13-1.21Q43.89-2.56 43.89-5.14L43.89-5.14L43.89-5.14Q43.89-7.71 45.22-9.19L45.22-9.19L45.22-9.19Q46.55-10.66 48.98-10.66L48.98-10.66L48.98-10.66Q51.41-10.66 52.64-9.26L52.64-9.26L52.64-9.26Q53.88-7.86 53.88-5.28L53.88-5.28L53.88-5.28Q53.88-2.70 52.63-1.27L52.63-1.27L52.63-1.27Q51.38 0.15 48.87 0.15" fill="#000000" stroke="none" stroke-width="none" transform="translate(-105.55999755859375,4.076450347900391)" style="fill: rgb(0, 0, 0);"></path></g><g class="path" style="transform: scale(0.91); transform-origin: -44.765px -1.17355px; animation: 1.5625s linear -0.721875s infinite normal forwards running breath-b0e482a2-ba44-4fda-a3a2-09e2dc074899;"><path d="M60.91-2.77L62.71-10.50L66.72-10.50L66.72-10.21L65.89-10.21L65.89-0.28L66.72-0.28L66.72 0L62.14 0L62.14-0.28L62.97-0.28L62.97-9.66L62.91-9.66L60.66 0L58.78 0L56.14-9.71L56.08-9.71L56.08-0.28L56.91-0.28L56.91 0L54.87 0L54.87-0.28L55.70-0.28L55.70-10.21L54.87-10.21L54.87-10.50L58.92-10.50L60.91-2.77" fill="#000000" stroke="none" stroke-width="none" transform="translate(-105.55999755859375,4.076450347900391)" style="fill: rgb(0, 0, 0);"></path></g><g class="path" style="transform: scale(0.91); transform-origin: -33.97px -1.17355px; animation: 1.5625s linear -0.670312s infinite normal forwards running breath-b0e482a2-ba44-4fda-a3a2-09e2dc074899;"><path d="M67.41-10.17L67.41-10.50L75.21-10.50L75.36-7.53L75.09-7.53L75.09-7.53Q74.46-9.04 73.77-9.61L73.77-9.61L73.77-9.61Q73.08-10.17 71.75-10.17L71.75-10.17L71.22-10.17L71.22-5.54L71.73-5.54L71.73-5.54Q72.44-5.54 72.91-6.07L72.91-6.07L72.91-6.07Q73.39-6.60 73.59-7.50L73.59-7.50L73.81-7.50L73.81-3.06L73.56-3.06L73.56-3.06Q73.29-4.18 72.83-4.67L72.83-4.67L72.83-4.67Q72.38-5.14 71.58-5.14L71.58-5.14L71.22-5.14L71.22-0.33L71.79-0.33L71.79-0.33Q73.17-0.33 74.14-1.16L74.14-1.16L74.14-1.16Q75.11-1.98 75.47-3.27L75.47-3.27L75.77-3.27L75.64 0L67.41 0L67.41-0.33L68.30-0.33L68.30-10.17L67.41-10.17" fill="#000000" stroke="none" stroke-width="none" transform="translate(-105.55999755859375,4.076450347900391)" style="fill: rgb(0, 0, 0);"></path></g><g class="path" style="transform: scale(0.91); transform-origin: -21.29px -1.17355px; animation: 1.5625s linear -0.61875s infinite normal forwards running breath-b0e482a2-ba44-4fda-a3a2-09e2dc074899;"><path d="M79.84-10.50L88.69-10.50L88.84-6.73L88.56-6.73L88.56-6.73Q87.90-8.73 87.39-9.46L87.39-9.46L87.39-9.46Q86.88-10.19 85.92-10.19L85.92-10.19L85.74-10.19L85.74-0.32L87.02-0.32L87.02 0L81.54 0L81.54-0.32L82.81-0.32L82.81-10.19L82.62-10.19L82.62-10.19Q81.66-10.19 81.14-9.43L81.14-9.43L81.14-9.43Q80.61-8.67 79.98-6.73L79.98-6.73L79.70-6.73L79.84-10.50" fill="#000000" stroke="none" stroke-width="none" transform="translate(-105.55999755859375,4.076450347900391)" style="fill: rgb(0, 0, 0);"></path></g><g class="path" style="transform: scale(0.91); transform-origin: -11px -1.17855px; animation: 1.5625s linear -0.567187s infinite normal forwards running breath-b0e482a2-ba44-4fda-a3a2-09e2dc074899;"><path d="M96.47-4.63L96.47-4.63L96.47-5.75L96.47-5.75Q96.47-8.49 96.20-9.21L96.20-9.21L96.20-9.21Q95.89-10.04 95.34-10.23L95.34-10.23L95.34-10.23Q95.03-10.35 94.58-10.35L94.58-10.35L94.58-10.35Q94.13-10.35 93.80-10.23L93.80-10.23L93.80-10.23Q93.48-10.11 93.27-9.81L93.27-9.81L93.27-9.81Q93.06-9.51 92.93-9.18L92.93-9.18L92.93-9.18Q92.81-8.85 92.73-8.25L92.73-8.25L92.73-8.25Q92.64-7.38 92.64-5.68L92.64-5.68L92.64-4.60L92.64-4.60Q92.64-2.77 92.78-2.00L92.78-2.00L92.78-2.00Q92.92-1.23 93.14-0.90L93.14-0.90L93.14-0.90Q93.60-0.16 94.58-0.16L94.58-0.16L94.58-0.16Q95.76-0.16 96.11-1.16L96.11-1.16L96.11-1.16Q96.47-2.16 96.47-4.63zM94.55 0.15L94.55 0.15L94.55 0.15Q92.04 0.15 90.80-1.21L90.80-1.21L90.80-1.21Q89.56-2.56 89.56-5.14L89.56-5.14L89.56-5.14Q89.56-7.71 90.89-9.19L90.89-9.19L90.89-9.19Q92.22-10.66 94.65-10.66L94.65-10.66L94.65-10.66Q97.08-10.66 98.32-9.26L98.32-9.26L98.32-9.26Q99.56-7.86 99.56-5.28L99.56-5.28L99.56-5.28Q99.56-2.70 98.30-1.27L98.30-1.27L98.30-1.27Q97.05 0.15 94.55 0.15" fill="#000000" stroke="none" stroke-width="none" transform="translate(-105.55999755859375,4.076450347900391)" style="fill: rgb(0, 0, 0);"></path></g><g class="path" style="transform: scale(0.91); transform-origin: 2.92001px -1.17855px; animation: 1.5625s linear -0.515625s infinite normal forwards running breath-b0e482a2-ba44-4fda-a3a2-09e2dc074899;"><path d="M110.39-4.63L110.39-4.63L110.39-5.75L110.39-5.75Q110.39-8.49 110.12-9.21L110.12-9.21L110.12-9.21Q109.81-10.04 109.26-10.23L109.26-10.23L109.26-10.23Q108.95-10.35 108.50-10.35L108.50-10.35L108.50-10.35Q108.05-10.35 107.72-10.23L107.72-10.23L107.72-10.23Q107.40-10.11 107.19-9.81L107.19-9.81L107.19-9.81Q106.98-9.51 106.85-9.18L106.85-9.18L106.85-9.18Q106.73-8.85 106.65-8.25L106.65-8.25L106.65-8.25Q106.56-7.38 106.56-5.68L106.56-5.68L106.56-4.60L106.56-4.60Q106.56-2.77 106.70-2.00L106.70-2.00L106.70-2.00Q106.84-1.23 107.06-0.90L107.06-0.90L107.06-0.90Q107.52-0.16 108.50-0.16L108.50-0.16L108.50-0.16Q109.68-0.16 110.03-1.16L110.03-1.16L110.03-1.16Q110.39-2.16 110.39-4.63zM108.47 0.15L108.47 0.15L108.47 0.15Q105.96 0.15 104.72-1.21L104.72-1.21L104.72-1.21Q103.48-2.56 103.48-5.14L103.48-5.14L103.48-5.14Q103.48-7.71 104.81-9.19L104.81-9.19L104.81-9.19Q106.14-10.66 108.57-10.66L108.57-10.66L108.57-10.66Q111-10.66 112.24-9.26L112.24-9.26L112.24-9.26Q113.48-7.86 113.48-5.28L113.48-5.28L113.48-5.28Q113.48-2.70 112.22-1.27L112.22-1.27L112.22-1.27Q110.97 0.15 108.47 0.15" fill="#000000" stroke="none" stroke-width="none" transform="translate(-105.55999755859375,4.076450347900391)" style="fill: rgb(0, 0, 0);"></path></g><g class="path" style="transform: scale(0.91); transform-origin: 13.535px -1.09855px; animation: 1.5625s linear -0.464062s infinite normal forwards running breath-b0e482a2-ba44-4fda-a3a2-09e2dc074899;"><path d="M118.00-3.19L118.00-3.19Q118.00-1.81 118.48-1.08L118.48-1.08L118.48-1.08Q118.95-0.34 120.18-0.34L120.18-0.34L120.18-0.34Q121.41-0.34 122.07-1.11L122.07-1.11L122.07-1.11Q122.73-1.88 122.73-3.44L122.73-3.44L122.73-10.21L121.75-10.21L121.75-10.50L123.94-10.50L123.94-10.21L123.12-10.21L123.12-3.54L123.12-3.54Q123.12-1.68 122.30-0.77L122.30-0.77L122.30-0.77Q121.47 0.15 119.38 0.15L119.38 0.15L119.38 0.15Q117.28 0.15 116.18-0.72L116.18-0.72L116.18-0.72Q115.08-1.59 115.08-3.71L115.08-3.71L115.08-10.21L114.25-10.21L114.25-10.50L118.98-10.50L118.98-10.21L118.00-10.21L118.00-3.19" fill="#000000" stroke="none" stroke-width="none" transform="translate(-105.55999755859375,4.076450347900391)" style="fill: rgb(0, 0, 0);"></path></g><g class="path" style="transform: scale(0.91); transform-origin: 23.95px -1.09855px; animation: 1.5625s linear -0.4125s infinite normal forwards running breath-b0e482a2-ba44-4fda-a3a2-09e2dc074899;"><path d="M129.10-5.31L129.10-5.31L128.31-5.31L128.31-0.28L129.28-0.28L129.28 0L124.41 0L124.41-0.28L125.39-0.28L125.39-10.21L124.41-10.21L124.41-10.50L128.94-10.50L128.94-10.50Q130.89-10.50 131.71-10.30L131.71-10.30L131.71-10.30Q132.53-10.09 132.85-9.81L132.85-9.81L132.85-9.81Q133.57-9.22 133.57-7.95L133.57-7.95L133.57-7.95Q133.57-6.67 132.94-6.13L132.94-6.13L132.94-6.13Q132.31-5.58 131.03-5.47L131.03-5.47L131.03-5.43L131.03-5.43Q132.24-5.26 132.72-4.71L132.72-4.71L132.72-4.71Q133.20-4.16 133.20-2.85L133.20-2.85L133.20-2.05L133.20-2.05Q133.20-1.27 133.28-1.00L133.28-1.00L133.28-1.00Q133.37-0.73 133.63-0.73L133.63-0.73L133.63-0.73Q133.91-0.73 134.06-0.98L134.06-0.98L134.06-0.98Q134.22-1.23 134.35-2.02L134.35-2.02L134.61-1.99L134.61-1.99Q134.44-0.72 134.03-0.28L134.03-0.28L134.03-0.28Q133.62 0.15 132.39 0.15L132.39 0.15L132.39 0.15Q131.16 0.15 130.64-0.43L130.64-0.43L130.64-0.43Q130.13-1.00 130.13-2.59L130.13-2.59L130.13-3.69L130.13-3.69Q130.13-4.53 129.91-4.92L129.91-4.92L129.91-4.92Q129.69-5.31 129.10-5.31zM128.81-10.21L128.31-10.21L128.31-5.59L128.79-5.59L128.79-5.59Q129.65-5.59 130.06-6.12L130.06-6.12L130.06-6.12Q130.47-6.64 130.47-7.83L130.47-7.83L130.47-8.27L130.47-8.27Q130.47-9.45 130.07-9.83L130.07-9.83L130.07-9.83Q129.68-10.21 128.81-10.21L128.81-10.21" fill="#000000" stroke="none" stroke-width="none" transform="translate(-105.55999755859375,4.076450347900391)" style="fill: rgb(0, 0, 0);"></path></g><g class="path" style="transform: scale(0.91); transform-origin: 36.74px -1.17355px; animation: 1.5625s linear -0.360938s infinite normal forwards running breath-b0e482a2-ba44-4fda-a3a2-09e2dc074899;"><path d="M137.85-10.21L137.85-10.50L142.26-10.50L142.26-10.50Q144.53-10.50 145.63-9.85L145.63-9.85L145.63-9.85Q146.75-9.20 146.75-7.51L146.75-7.51L146.75-7.51Q146.75-5.65 145.40-4.95L145.40-4.95L145.40-4.95Q144.13-4.30 141.87-4.30L141.87-4.30L141.75-4.30L141.75-0.28L143.63-0.28L143.63 0L137.85 0L137.85-0.28L138.82-0.28L138.82-10.21L137.85-10.21zM142.16-10.21L141.75-10.21L141.75-4.59L142.06-4.59L142.06-4.59Q142.97-4.59 143.31-5.21L143.31-5.21L143.31-5.21Q143.66-5.82 143.66-7.20L143.66-7.20L143.66-7.92L143.66-7.92Q143.66-9.20 143.33-9.71L143.33-9.71L143.33-9.71Q143.01-10.21 142.16-10.21L142.16-10.21" fill="#000000" stroke="none" stroke-width="none" transform="translate(-105.55999755859375,4.076450347900391)" style="fill: rgb(0, 0, 0);"></path></g><g class="path" style="transform: scale(0.91); transform-origin: 45.125px -1.21855px; animation: 1.5625s linear -0.309375s infinite normal forwards running breath-b0e482a2-ba44-4fda-a3a2-09e2dc074899;"><path d="M150.90-0.28L151.96-0.28L150.87-3.52L147.90-3.52L146.74-0.28L147.87-0.28L147.87 0L145.57 0L145.57-0.28L146.28-0.28L150.10-10.59L151.33-10.59L155.11-0.28L155.80-0.28L155.80 0L150.90 0L150.90-0.28zM150.75-3.85L149.44-7.79L148.03-3.85L150.75-3.85" fill="#000000" stroke="none" stroke-width="none" transform="translate(-105.55999755859375,4.076450347900391)" style="fill: rgb(0, 0, 0);"></path></g><g class="path" style="transform: scale(0.91); transform-origin: 55.66px -1.09855px; animation: 1.5625s linear -0.257813s infinite normal forwards running breath-b0e482a2-ba44-4fda-a3a2-09e2dc074899;"><path d="M160.81-5.31L160.81-5.31L160.02-5.31L160.02-0.28L160.99-0.28L160.99 0L156.12 0L156.12-0.28L157.09-0.28L157.09-10.21L156.12-10.21L156.12-10.50L160.65-10.50L160.65-10.50Q162.60-10.50 163.42-10.30L163.42-10.30L163.42-10.30Q164.23-10.09 164.56-9.81L164.56-9.81L164.56-9.81Q165.28-9.22 165.28-7.95L165.28-7.95L165.28-7.95Q165.28-6.67 164.65-6.13L164.65-6.13L164.65-6.13Q164.02-5.58 162.73-5.47L162.73-5.47L162.73-5.43L162.73-5.43Q163.95-5.26 164.43-4.71L164.43-4.71L164.43-4.71Q164.91-4.16 164.91-2.85L164.91-2.85L164.91-2.05L164.91-2.05Q164.91-1.27 164.99-1.00L164.99-1.00L164.99-1.00Q165.07-0.73 165.34-0.73L165.34-0.73L165.34-0.73Q165.61-0.73 165.77-0.98L165.77-0.98L165.77-0.98Q165.93-1.23 166.06-2.02L166.06-2.02L166.32-1.99L166.32-1.99Q166.15-0.72 165.74-0.28L165.74-0.28L165.74-0.28Q165.33 0.15 164.10 0.15L164.10 0.15L164.10 0.15Q162.87 0.15 162.35-0.43L162.35-0.43L162.35-0.43Q161.83-1.00 161.83-2.59L161.83-2.59L161.83-3.69L161.83-3.69Q161.83-4.53 161.62-4.92L161.62-4.92L161.62-4.92Q161.40-5.31 160.81-5.31zM160.51-10.21L160.02-10.21L160.02-5.59L160.50-5.59L160.50-5.59Q161.35-5.59 161.77-6.12L161.77-6.12L161.77-6.12Q162.18-6.64 162.18-7.83L162.18-7.83L162.18-8.27L162.18-8.27Q162.18-9.45 161.78-9.83L161.78-9.83L161.78-9.83Q161.38-10.21 160.51-10.21L160.51-10.21" fill="#000000" stroke="none" stroke-width="none" transform="translate(-105.55999755859375,4.076450347900391)" style="fill: rgb(0, 0, 0);"></path></g><g class="path" style="transform: scale(0.91); transform-origin: 66.125px -1.21855px; animation: 1.5625s linear -0.20625s infinite normal forwards running breath-b0e482a2-ba44-4fda-a3a2-09e2dc074899;"><path d="M171.90-0.28L172.96-0.28L171.87-3.52L168.90-3.52L167.74-0.28L168.87-0.28L168.87 0L166.57 0L166.57-0.28L167.28-0.28L171.10-10.59L172.33-10.59L176.11-0.28L176.80-0.28L176.80 0L171.90 0L171.90-0.28zM171.75-3.85L170.44-7.79L169.03-3.85L171.75-3.85" fill="#000000" stroke="none" stroke-width="none" transform="translate(-105.55999755859375,4.076450347900391)" style="fill: rgb(0, 0, 0);"></path></g><g class="path" style="transform: scale(0.91); transform-origin: 76.845px -1.17355px; animation: 1.5625s linear -0.154688s infinite normal forwards running breath-b0e482a2-ba44-4fda-a3a2-09e2dc074899;"><path d="M187.60-5.43L187.60-5.43L187.60-5.43Q187.60-2.34 185.86-1.13L185.86-1.13L185.86-1.13Q184.26 0 181.45 0L181.45 0L177.21 0L177.21-0.28L178.20-0.28L178.20-10.21L177.21-10.21L177.21-10.50L181.84-10.50L181.84-10.50Q184.72-10.50 186.16-9.32L186.16-9.32L186.16-9.32Q187.60-8.14 187.60-5.43zM181.12-10.21L181.12-0.28L181.69-0.28L181.69-0.28Q183.21-0.28 183.86-1.36L183.86-1.36L183.86-1.36Q184.51-2.43 184.51-4.95L184.51-4.95L184.51-5.82L184.51-5.82Q184.51-9.20 183.22-9.88L183.22-9.88L183.22-9.88Q182.61-10.21 181.48-10.21L181.48-10.21L181.12-10.21" fill="#000000" stroke="none" stroke-width="none" transform="translate(-105.55999755859375,4.076450347900391)" style="fill: rgb(0, 0, 0);"></path></g><g class="path" style="transform: scale(0.91); transform-origin: 85.32px -1.17355px; animation: 1.5625s linear -0.103125s infinite normal forwards running breath-b0e482a2-ba44-4fda-a3a2-09e2dc074899;"><path d="M188.59-10.21L188.59-10.50L193.17-10.50L193.17-10.21L192.34-10.21L192.34-0.28L193.17-0.28L193.17 0L188.59 0L188.59-0.28L189.42-0.28L189.42-10.21L188.59-10.21" fill="#000000" stroke="none" stroke-width="none" transform="translate(-105.55999755859375,4.076450347900391)" style="fill: rgb(0, 0, 0);"></path></g><g class="path" style="transform: scale(0.91); transform-origin: 92.56px -1.17855px; animation: 1.5625s linear -0.0515625s infinite normal forwards running breath-b0e482a2-ba44-4fda-a3a2-09e2dc074899;"><path d="M198.42-0.16L198.42-0.16L198.42-0.16Q199.17-0.16 199.75-0.57L199.75-0.57L199.75-0.57Q200.32-0.97 200.32-1.79L200.32-1.79L200.32-1.79Q200.32-2.61 199.70-3.04L199.70-3.04L199.70-3.04Q199.08-3.48 197.93-3.80L197.93-3.80L197.93-3.80Q196.78-4.13 196.27-4.37L196.27-4.37L196.27-4.37Q195.75-4.60 195.28-5.00L195.28-5.00L195.28-5.00Q194.35-5.77 194.35-7.41L194.35-7.41L194.35-7.41Q194.35-8.74 195.31-9.71L195.31-9.71L195.31-9.71Q196.26-10.66 197.91-10.66L197.91-10.66L197.91-10.66Q198.70-10.66 199.57-10.43L199.57-10.43L199.57-10.43Q200.43-10.20 200.64-10.20L200.64-10.20L200.64-10.20Q200.85-10.20 201.01-10.50L201.01-10.50L201.18-10.50L201.28-7.47L201.04-7.47L201.04-7.47Q200.32-8.78 199.54-9.56L199.54-9.56L199.54-9.56Q198.75-10.35 197.83-10.35L197.83-10.35L197.83-10.35Q196.90-10.35 196.39-9.92L196.39-9.92L196.39-9.92Q195.88-9.49 195.88-8.78L195.88-8.78L195.88-8.78Q195.88-8.07 196.49-7.69L196.49-7.69L196.49-7.69Q197.10-7.30 197.98-7.06L197.98-7.06L197.98-7.06Q198.87-6.83 199.15-6.73L199.15-6.73L199.15-6.73Q199.42-6.64 199.84-6.49L199.84-6.49L199.84-6.49Q200.25-6.33 200.51-6.16L200.51-6.16L200.51-6.16Q200.77-5.98 201.07-5.72L201.07-5.72L201.07-5.72Q201.36-5.46 201.52-5.14L201.52-5.14L201.52-5.14Q201.93-4.42 201.93-3.44L201.93-3.44L201.93-3.44Q201.93-1.81 200.92-0.83L200.92-0.83L200.92-0.83Q199.90 0.15 198.25 0.15L198.25 0.15L198.25 0.15Q197.40 0.15 196.30-0.07L196.30-0.07L196.30-0.07Q195.19-0.30 195.07-0.30L195.07-0.30L195.07-0.30Q194.86-0.30 194.67 0.15L194.67 0.15L194.46 0.15L194.31-3.42L194.56-3.42L194.56-3.42Q195.22-2.11 196.25-1.14L196.25-1.14L196.25-1.14Q197.28-0.16 198.42-0.16" fill="#000000" stroke="none" stroke-width="none" transform="translate(-105.55999755859375,4.076450347900391)" style="fill: rgb(0, 0, 0);"></path></g><g class="path" style="transform: scale(0.91); transform-origin: 101.475px -1.17355px; animation: 1.5625s linear 0s infinite normal forwards running breath-b0e482a2-ba44-4fda-a3a2-09e2dc074899;"><path d="M202.86-10.17L202.86-10.50L210.66-10.50L210.81-7.53L210.54-7.53L210.54-7.53Q209.91-9.04 209.22-9.61L209.22-9.61L209.22-9.61Q208.53-10.17 207.19-10.17L207.19-10.17L206.67-10.17L206.67-5.54L207.18-5.54L207.18-5.54Q207.88-5.54 208.36-6.07L208.36-6.07L208.36-6.07Q208.84-6.60 209.04-7.50L209.04-7.50L209.26-7.50L209.26-3.06L209.01-3.06L209.01-3.06Q208.74-4.18 208.28-4.67L208.28-4.67L208.28-4.67Q207.82-5.14 207.03-5.14L207.03-5.14L206.67-5.14L206.67-0.33L207.24-0.33L207.24-0.33Q208.62-0.33 209.59-1.16L209.59-1.16L209.59-1.16Q210.55-1.98 210.91-3.27L210.91-3.27L211.21-3.27L211.09 0L202.86 0L202.86-0.33L203.74-0.33L203.74-10.17L202.86-10.17" fill="#000000" stroke="none" stroke-width="none" transform="translate(-105.55999755859375,4.076450347900391)" style="fill: rgb(0, 0, 0);"></path></g></g>
</g>
</g>
<style id="breath-b0e482a2-ba44-4fda-a3a2-09e2dc074899" data-anikit="">@keyframes breath-b0e482a2-ba44-4fda-a3a2-09e2dc074899
{
  0% {
    animation-timing-function: cubic-bezier(0.9647,0.2413,-0.0705,0.7911);
    transform: scale(0.9099999999999999);
  }
  51% {
    animation-timing-function: cubic-bezier(0.9226,0.2631,-0.0308,0.7628);
    transform: scale(1.02994);
  }
  100% {
    transform: scale(0.9099999999999999);
  }
}</style></svg>